<?xml version="1.0" standalone="no"?><!DOCTYPE svg PUBLIC "-//W3C//DTD SVG 1.1//EN" "http://www.w3.org/Graphics/SVG/1.1/DTD/svg11.dtd"><svg t="1668685424531" class="icon" viewBox="0 0 1024 1024" version="1.1" xmlns="http://www.w3.org/2000/svg" p-id="1806" xmlns:xlink="http://www.w3.org/1999/xlink" width="200" height="200"><path d="M511.8 64.6C265 64.6 64.2 265.3 64.2 512S265 959.6 511.8 959.6c246.7 0 447.6-200.8 447.6-447.6-0.1-246.7-200.9-447.4-447.6-447.4z m0 852.2C288.6 916.8 107 735.2 107 512c0-223.2 181.6-404.8 404.8-404.8C735 107.2 916.6 289 916.6 512c0 223.2-181.6 404.8-404.8 404.8z m0 0" fill="#76569A" p-id="1807"></path><path d="M701.8 431.8c-13.2-7.9-29.7-8.1-43.2-0.6L441 551.6c-7.7 4.3-13.9 10.7-17.5 18.4V455.1c0-17.7-10.9-32-24.6-32-13.5 0-24.6 14.3-24.6 32v266.4c0 17.7 10.9 32 24.6 32 13.7 0 24.6-14.3 24.6-32V606.3c3.9 7.5 9.8 14.1 17.5 18.4l217.7 120.5c6.4 3.6 13.7 5.3 21.1 5.3 7.5 0 15.2-1.9 22-6 13-7.7 20.7-21.1 20.7-35.9v-241c0-14.7-7.7-28.1-20.7-35.8z" fill="#FFF433" p-id="1808"></path><path d="M671.6 355.6c-13.2-7.9-29.7-8.1-43.2-0.6L410.7 475.5c-7.7 4.3-13.9 10.7-17.5 18.4v-115c0-17.7-10.9-32-24.6-32-13.5 0-24.6 14.3-24.6 32v266.4c0 17.7 10.9 32 24.6 32 13.7 0 24.6-14.3 24.6-32V530.2c3.9 7.5 9.8 14.1 17.5 18.4L628.4 669c6.4 3.6 13.7 5.3 21.1 5.3 7.5 0 15.2-1.9 22-6 13-7.7 20.7-21.1 20.7-35.9v-241c0.1-14.6-7.6-28.1-20.6-35.8z m-22 276c-0.2 0.2-0.2 0-0.4 0L433.2 512l216-119.6h0.4v239.2z m0 0" fill="#76569A" p-id="1809"></path></svg>