<?xml version="1.0" standalone="no"?><!DOCTYPE svg PUBLIC "-//W3C//DTD SVG 1.1//EN" "http://www.w3.org/Graphics/SVG/1.1/DTD/svg11.dtd"><svg t="1668685415494" class="icon" viewBox="0 0 1024 1024" version="1.1" xmlns="http://www.w3.org/2000/svg" p-id="1665" xmlns:xlink="http://www.w3.org/1999/xlink" width="200" height="200"><path d="M511.8 64.2C265 64.2 64.2 264.8 64.2 511.6c0 246.7 200.8 447.6 447.6 447.6s447.6-200.8 447.6-447.6c-0.1-246.8-200.9-447.4-447.6-447.4z m0 852.2C288.6 916.4 107 734.8 107 511.6c0-223 181.6-404.8 404.8-404.8 223.2 0 404.8 181.6 404.8 404.8 0 223.2-181.6 404.8-404.8 404.8z m0 0" fill="#76569A" p-id="1666"></path><path d="M321.7 431.4c-13 7.7-20.7 21.2-20.7 35.9v241c0 14.7 7.7 28.2 20.7 35.9 6.8 4.1 14.5 6 22 6s14.7-1.7 21.1-5.3l217.7-120.5c7.7-4.3 13.7-10.9 17.5-18.4v115.2c0 17.7 10.9 32 24.6 32 13.7 0 24.6-14.3 24.6-32V454.7c0-17.7-11.1-32-24.6-32-13.7 0-24.6 14.3-24.6 32v114.9c-3.6-7.7-9.8-14.1-17.5-18.4L364.9 430.7c-13.5-7.4-29.9-7.2-43.2 0.7z" fill="#FFF433" p-id="1667"></path><path d="M352 355.2c-13 7.7-20.7 21.2-20.7 35.9v241c0 14.7 7.7 28.2 20.7 35.9 6.8 4.1 14.5 6 22 6s14.7-1.7 21.1-5.3l217.7-120.5c7.7-4.3 13.7-10.9 17.5-18.4v115.1c0 17.7 10.9 32 24.6 32 13.7 0 24.6-14.3 24.6-32V378.5c0-17.7-11.1-32-24.6-32-13.7 0-24.6 14.3-24.6 32v114.9c-3.6-7.7-9.8-14.1-17.5-18.4L395.1 354.6c-13.4-7.5-29.9-7.3-43.1 0.6z m22 36.7h0.4l216 119.6-216 119.6c-0.2 0-0.2 0.2-0.4 0V391.9z m0 239.3" fill="#76569A" p-id="1668"></path></svg>