<?xml version="1.0" standalone="no"?><!DOCTYPE svg PUBLIC "-//W3C//DTD SVG 1.1//EN" "http://www.w3.org/Graphics/SVG/1.1/DTD/svg11.dtd"><svg t="1668684390251" class="icon" viewBox="0 0 1024 1024" version="1.1" xmlns="http://www.w3.org/2000/svg" p-id="8368" xmlns:xlink="http://www.w3.org/1999/xlink" width="200" height="200"><path d="M539.2 521.1m-420.1 0a420.1 420.1 0 1 0 840.2 0 420.1 420.1 0 1 0-840.2 0Z" fill="#FFCC00" p-id="8369"></path><path d="M213.9 353.4c-1.1 0-2.3-0.3-3.4-0.8-3.6-1.9-5-6.3-3.1-9.9 13.3-25.4 29.4-49.5 47.9-71.5a7.3 7.3 0 0 1 10.3-0.9 7.3 7.3 0 0 1 0.9 10.3c-17.9 21.2-33.4 44.3-46.1 68.8-1.3 2.6-3.8 4-6.5 4zM809.4 707.8c-1.4 0-2.8-0.4-4-1.2-3.4-2.2-4.3-6.8-2.1-10.1 8.7-13.2 16.7-27.2 23.6-41.4 1.8-3.6 6.2-5.1 9.8-3.4 3.6 1.8 5.1 6.2 3.4 9.8-7.2 14.8-15.5 29.3-24.6 43.1-1.4 2-3.7 3.2-6.1 3.2zM287.5 254.9c-1.9 0-3.8-0.7-5.3-2.2-2.8-2.9-2.7-7.5 0.2-10.4l3-2.8c2.9-2.8 7.6-2.7 10.3 0.3 2.8 2.9 2.7 7.6-0.3 10.4l-2.9 2.8c-1.3 1.2-3.2 1.9-5 1.9z" fill="#FFFFFF" p-id="8370"></path><path d="M192.5 217c-2 0-4-0.8-5.4-2.4-2.7-3-2.5-7.6 0.5-10.3 2-1.8 4-3.7 6.1-5.5 3-2.7 7.7-2.4 10.3 0.7 2.7 3 2.4 7.7-0.7 10.3-2 1.7-3.9 3.5-5.9 5.3-1.4 1.2-3.2 1.9-4.9 1.9zM490.8 932.3c-235.7 0-427.4-191.7-427.4-427.4 0-97.1 33.5-192.2 94.2-267.8 2.5-3.1 7.1-3.6 10.3-1.1s3.6 7.1 1.1 10.3c-58.7 72.9-91 164.8-91 258.6 0 227.6 185.2 412.8 412.8 412.8 126.6 0 244.5-56.9 323.3-156.2 2.5-3.2 7.1-3.7 10.3-1.2s3.7 7.1 1.2 10.3c-81.7 102.8-203.7 161.7-334.8 161.7zM857.4 717.4c-1.2 0-2.4-0.3-3.6-0.9-3.5-2-4.8-6.4-2.8-10 34.3-61.2 52.5-131 52.5-201.6 0-227.6-185.2-412.8-412.8-412.8-74.1 0-146.8 19.9-210.2 57.4-3.5 2.1-8 0.9-10-2.6-2.1-3.5-0.9-8 2.6-10C338.8 98 414 77.5 490.8 77.5c235.7 0 427.4 191.7 427.4 427.4 0 73.2-18.8 145.3-54.4 208.8-1.3 2.4-3.8 3.7-6.4 3.7z" p-id="8371"></path><path d="M518.8 731.8c-71 0-135.7-33.5-174.6-87.8h-0.1v28.8c0 6.1-4.8 11.3-10.9 11.4-6.2 0.1-11.1-4.9-11.1-11v-68.4c0-5.5 3.7-10.3 9.1-11.7 5.2-1.1 10.7 1.7 12.8 6.7 29.5 66.8 98.1 110 174.7 110 104 0 188.6-84.5 188.8-188.4 0-6.1 4.8-11.3 10.8-11.4 6.2-0.1 11.2 4.8 11.2 11 0 116.3-94.5 210.8-210.7 210.8zM316 532c-6.1 0-11-4.9-11-11 0-116.2 94.6-210.8 210.8-210.8 69 0 132.7 34.3 171.5 89.9v-31.4c0-6.1 4.9-11 11-11s11 4.9 11 11V450s0 9.4-6.9 10.6c-7.9 1.4-10.9-6.8-10.9-6.8l-3.8-8.5c-30-68.8-97.4-113.3-171.8-113.3-104.1 0-188.8 84.7-188.8 188.8-0.1 6.3-5.1 11.2-11.1 11.2z" fill="#FFFFFF" p-id="8372"></path></svg>