<?xml version="1.0" standalone="no"?><!DOCTYPE svg PUBLIC "-//W3C//DTD SVG 1.1//EN" "http://www.w3.org/Graphics/SVG/1.1/DTD/svg11.dtd"><svg t="1668686107754" class="icon" viewBox="0 0 1024 1024" version="1.1" xmlns="http://www.w3.org/2000/svg" p-id="1697" xmlns:xlink="http://www.w3.org/1999/xlink" width="200" height="200"><path d="M512 958.2C266 958.2 65.8 758.1 65.8 512 65.8 266 266 65.8 512 65.8S958.2 266 958.2 512c0 246.1-200.1 446.2-446.2 446.2z m0-841.6C294 116.6 116.6 294 116.6 512c0 218 177.4 395.4 395.4 395.4 218 0 395.4-177.4 395.4-395.4 0-218-177.4-395.4-395.4-395.4z" fill="#76569A" p-id="1698"></path><path d="M511.4 655.5c0 26.4-21.4 47.8-47.8 47.8s-47.8-21.4-47.8-47.8v-287c0-26.4 21.4-47.8 47.8-47.8s47.8 21.4 47.8 47.8v287zM678.4 655.5c0 26.4-21.4 47.8-47.8 47.8s-47.8-21.4-47.8-47.8v-287c0-26.4 21.4-47.8 47.8-47.8s47.8 21.4 47.8 47.8v287z" fill="#FFF433" p-id="1699"></path><path d="M595.5 679.1c-14.6 0-26.5-9.8-26.5-21.9V366.8c0-12.1 11.9-21.9 26.5-21.9s26.5 9.8 26.5 21.9v290.4c0 12.1-11.9 21.9-26.5 21.9z m-167 0c-14.6 0-26.5-9.8-26.5-21.9V366.8c0-12.1 11.9-21.9 26.5-21.9s26.5 9.8 26.5 21.9v290.4c0 12.1-11.9 21.9-26.5 21.9z" fill="#76569A" p-id="1700"></path></svg>