<?xml version="1.0" standalone="no"?><!DOCTYPE svg PUBLIC "-//W3C//DTD SVG 1.1//EN" "http://www.w3.org/Graphics/SVG/1.1/DTD/svg11.dtd"><svg t="1668685427079" class="icon" viewBox="0 0 1024 1024" version="1.1" xmlns="http://www.w3.org/2000/svg" p-id="1947" xmlns:xlink="http://www.w3.org/1999/xlink" width="200" height="200"><path d="M570.5 662.2c-26.6-0.1-48.4-21.8-48.5-48.4l-0.8-213.3c-0.1-12.8 5-25.3 14-34.3 9.3-9 21.6-14 34.6-14 8.4 0 16.7 2.1 24 6.2l185 105.9c15.2 8.7 24.3 24.3 24.4 41.8 0.2 17.4-9 33.5-24 42.1L594.9 655.6c-7.4 4.3-15.8 6.6-24.4 6.6z" fill="#FFF433" p-id="1948"></path><path d="M472.9 664.9c-26.6-0.1-48.4-21.8-48.5-48.4l-0.8-213.3c-0.1-12.8 5-25.3 14-34.3 9.3-9 21.6-14 34.6-14 8.4 0 16.7 2.1 24 6.2l185 105.9c15.2 8.7 24.3 24.3 24.4 41.8 0.2 17.4-9 33.5-24 42.1L497.2 658.3c-7.4 4.3-15.8 6.6-24.3 6.6z m1.3-245.7l0.7 181.2 10.7 6.1 156.6-91.2V503l-157.4-90-10.6 6.2z" fill="#76569A" p-id="1949"></path><path d="M511.3 960.3c-247 0-448-201-448-448 0-247.1 201-448 448-448s448 201 448 448-200.9 448-448 448z m0-845.4C292.2 114.9 114 293.2 114 512.3c0 219.1 178.3 397.3 397.4 397.3 219.1 0 397.3-178.2 397.3-397.3 0-219.1-178.3-397.4-397.4-397.4z" fill="#76569A" p-id="1950"></path></svg>