<?xml version="1.0" standalone="no"?><!DOCTYPE svg PUBLIC "-//W3C//DTD SVG 1.1//EN" "http://www.w3.org/Graphics/SVG/1.1/DTD/svg11.dtd"><svg t="1668683601825" class="icon" viewBox="0 0 1470 1024" version="1.1" xmlns="http://www.w3.org/2000/svg" p-id="1744" xmlns:xlink="http://www.w3.org/1999/xlink" width="287.109375" height="200"><path d="M741.197315 517.497987m-299.640268 0a299.640268 299.640268 0 1 0 599.280537 0 299.640268 299.640268 0 1 0-599.280537 0Z" fill="#F7E946" p-id="1745"></path><path d="M917.820134 320.257718c-3.779866 0-7.559732-0.687248-10.995973-1.718121-16.150336-5.154362-32.987919-18.899329-51.543624-41.578523-4.467114-5.497987-7.216107-12.37047-7.903356-19.586577-1.374497-20.61745 9.965101-37.111409 30.582551-43.983893 11.339597-3.779866 23.710067-1.718121 33.331543 5.841611 12.714094 9.965101 34.70604 30.926174 40.891275 57.041611 3.092617 12.37047-1.030872 25.771812-10.308724 34.362416-6.872483 6.185235-15.119463 9.621477-24.053692 9.621476z m-28.864429-74.222819c-7.216107 2.405369-7.559732 5.154362-7.559732 8.590604 0 0 0 0.343624 0.343624 0.343625 18.212081 22.33557 30.238926 28.86443 35.736913 30.58255 0.343624 0 0.343624 0 1.030873-0.343624 0.343624-0.343624 0.343624-1.030872 0.343624-1.030873-4.12349-16.837584-21.648322-32.300671-28.86443-38.142282h-1.030872z" p-id="1746"></path><path d="M832.694121 523.521718l16.081611-280.634416 34.307436 1.968966-16.081611 280.634417z" p-id="1747"></path><path d="M763.87651 617.836242c-42.265772 0-82.469799-24.74094-97.589262-63.914094-9.277852-23.710067-8.24698-49.481879 2.748994-72.161074 11.339597-24.397315 33.331544-43.296644 60.134228-52.230873 53.261745-17.524832 112.365101 8.590604 131.608053 58.416108 9.277852 23.710067 8.24698 49.481879-2.748993 72.504698-11.339597 24.397315-33.331544 43.296644-60.134228 52.230872-10.995973 3.092617-22.33557 5.154362-34.018792 5.154363z m0-159.785235c-7.903356 0-15.806711 1.374497-23.710067 3.779865-18.212081 5.841611-32.300671 18.212081-39.860403 34.362417-6.872483 14.432215-7.216107 30.58255-1.718121 45.358389 12.714094 32.987919 52.574497 50.169128 88.998658 38.142282 18.212081-5.841611 32.300671-18.212081 39.860403-34.362416 6.872483-14.432215 7.216107-30.58255 1.718121-45.35839-10.308725-25.771812-36.767785-41.922148-65.288591-41.922147zM598.249664 248.096644c-6.185235 0-12.37047-3.436242-15.463087-9.621476-4.12349-8.590604-0.687248-18.899329 7.903356-23.022819C635.704698 193.460403 684.499329 182.120805 735.355705 182.120805c26.802685 0 53.605369 3.092617 79.720805 9.621477 9.277852 2.405369 14.775839 11.683221 12.714094 20.961074-2.405369 9.277852-11.683221 14.775839-20.961074 12.714094C783.463087 219.232215 759.409396 216.483221 735.355705 216.483221c-45.358389 0-88.998658 9.965101-129.546309 29.895302-2.748993 1.030872-5.154362 1.718121-7.559732 1.718121zM471.795973 360.805369c-3.092617 0-6.528859-1.030872-9.277852-2.748993-7.903356-5.154362-10.308725-15.806711-5.154363-23.710067 17.868456-27.833557 39.860403-52.918121 65.288591-74.566443 7.216107-6.185235 18.212081-5.154362 24.053691 2.061745 6.185235 7.216107 5.154362 18.212081-2.061745 24.053691-22.679195 19.242953-42.609396 41.578523-58.416107 66.663087-3.092617 5.154362-8.590604 8.24698-14.432215 8.24698z" p-id="1748"></path><path d="M735.355705 841.879195c-181.777181 0-329.879195-148.102013-329.879195-329.879195 0-38.142282 6.528859-75.94094 19.242953-111.677852 3.092617-8.934228 13.057718-13.401342 21.991946-10.308725 8.934228 3.092617 13.401342 13.057718 10.308725 21.991946-11.339597 31.957047-17.181208 65.632215-17.181208 99.994631 0 162.877852 132.638926 295.516779 295.516779 295.516779s295.516779-132.638926 295.516778-295.516779c0-56.010738-15.806711-110.64698-45.702013-157.72349-5.154362-7.903356-2.748993-18.555705 5.154362-23.710067s18.555705-2.748993 23.710067 5.154362C1047.710067 388.295302 1065.234899 449.460403 1065.234899 512c0 181.777181-148.102013 329.879195-329.879194 329.879195z" p-id="1749"></path></svg>