<?xml version="1.0" standalone="no"?><!DOCTYPE svg PUBLIC "-//W3C//DTD SVG 1.1//EN" "http://www.w3.org/Graphics/SVG/1.1/DTD/svg11.dtd"><svg t="1668684046094" class="icon" viewBox="0 0 1024 1024" version="1.1" xmlns="http://www.w3.org/2000/svg" p-id="1887" xmlns:xlink="http://www.w3.org/1999/xlink" width="200" height="200"><path d="M511.8 512.2m-447.53 0a447.53 447.53 0 1 0 895.06 0 447.53 447.53 0 1 0-895.06 0Z" fill="#FFF000" p-id="1888"></path><path d="M770.86 610.49V254.82l-359.67 52.62v328.99c-8.58-6-18.59-10.79-29.68-14.07-48.42-14.33-101.91 3.61-121.76 40.85-8.93 16.75-9.87 35.49-2.64 52.75 9.02 21.52 29.65 38.43 56.62 46.4 11.28 3.34 22.83 4.92 34.17 4.92 37.34 0 72.36-17.21 87.59-45.77a64.142 64.142 0 0 0 5.79-15.25h0.08v-0.32c2.09-8.98 2.11-18.2 0-27.21V333.51l299.33-43.79v272.67c-26.4-19.15-65.49-25.52-101.11-14.06-26.53 8.52-46.5 25.8-54.8 47.39-6.76 17.55-5.16 36.41 4.5 53.07 15.89 27.45 50.17 43.69 86.46 43.69 12.2 0 24.63-1.84 36.65-5.71 26.52-8.52 46.5-25.79 54.81-47.37 3.63-9.44 4.82-19.26 3.66-28.91z m-359.67 91.39c-0.6 1.83-1.37 3.64-2.33 5.43-12.91 24.23-52.52 36.2-86.57 26.11-18.24-5.39-31.85-16.01-37.35-29.13-3.71-8.87-3.22-18.17 1.44-26.89v-0.01c9.79-18.37 34.96-29.68 61.4-29.68 8.42 0 16.96 1.14 25.18 3.57 18.24 5.39 31.85 16.01 37.35 29.13 0.33 0.8 0.62 1.6 0.89 2.41v19.06z m329.5-79.36a31.12 31.12 0 0 1-1.66 6.05c-5.01 13.02-18.09 23.77-35.88 29.49-33.67 10.8-73.85-0.34-87.77-24.4-5.06-8.74-5.91-18.12-2.45-27.12 5.01-13.02 18.09-23.78 35.89-29.5 33.62-10.8 73.84 0.35 87.77 24.4 2.1 3.63 3.47 7.37 4.11 11.14v9.94z m-32.76-275.54l-236.7 34.62 2.91 19.9 236.69-34.62-2.9-19.9z" fill="#231815" p-id="1889"></path></svg>